<?xml version="1.0" encoding="UTF-8" standalone="no"?>
<svg
   id="Layer_1"
   data-name="Layer 1"
   viewBox="0 0 79.482356 153.59447"
   version="1.1"
   sodipodi:docname="ripplocampus_icon.svg"
   width="79.482353"
   height="153.59447"
   inkscape:version="1.1.2 (b8e25be8, 2022-02-05)"
   xmlns:inkscape="http://www.inkscape.org/namespaces/inkscape"
   xmlns:sodipodi="http://sodipodi.sourceforge.net/DTD/sodipodi-0.dtd"
   xmlns="http://www.w3.org/2000/svg"
   xmlns:svg="http://www.w3.org/2000/svg">
  <sodipodi:namedview
     id="namedview901"
     pagecolor="#ffffff"
     bordercolor="#666666"
     borderopacity="1.0"
     inkscape:pageshadow="2"
     inkscape:pageopacity="0.0"
     inkscape:pagecheckerboard="0"
     showgrid="false"
     fit-margin-top="0"
     fit-margin-left="0"
     fit-margin-right="0"
     fit-margin-bottom="0"
     inkscape:zoom="1.3517749"
     inkscape:cx="1.8494203"
     inkscape:cy="36.988406"
     inkscape:window-width="1512"
     inkscape:window-height="916"
     inkscape:window-x="0"
     inkscape:window-y="38"
     inkscape:window-maximized="1"
     inkscape:current-layer="Layer_1" />
  <defs
     id="defs826">
    <style
       id="style824">.cls-1,.cls-4{fill:none;stroke:#de5f5f;}.cls-1,.cls-6{stroke-miterlimit:10;}.cls-1{stroke-width:3px;}.cls-2,.cls-6{fill:#de5f5f;}.cls-3{opacity:0.75;}.cls-4{stroke-linecap:round;stroke-linejoin:round;stroke-width:2px;}.cls-5{fill:#fff;}.cls-6{stroke:#df5f5f;}</style>
  </defs>
  <path
     class="cls-2"
     d="M 309.12,162.65 306,164 c -0.08,0 -15,6.7 -16.51,7.51 -35.12,16.12 -10.14,51.49 12.51,39.27 13.91,-8.77 3.55,-30.26 -11,-20.9 -7.63,7.24 1.9,15 7.59,9.5 -7.95,6.44 -15.78,-2.77 -9.2,-10.67 6.35,-6.12 22.29,-3.42 24.44,5.66 3.17,13.32 -11.66,22.08 -21.52,21.66 -15.27,-0.37 -27.78,-17.23 -18.75,-32.12 4.88,-7.66 10.77,-10.76 15.49,-13.24 1.52,-0.8 11.43,-5.69 13.81,-6.91 -1.49,-0.13 -4.1,-0.41 -5.77,-0.52 -9.35,-0.63 -15,-1.18 -15.06,-3.67 0,-3.55 9.11,-5.39 22,-7.59 5.38,-0.92 11.41,-2.34 11.07,-3.43 -0.49,-1.55 -12.82,-2.12 -23.94,-2.51 -19.7,-0.7 -28.36,-1.22 -28.58,-3.33 -0.22,-2.11 7.55,-3.23 31,-7.13 12.09,-2 19.59,-2.59 19.65,-4.55 0.05,-1.67 -13.75,-2.09 -29.05,-2.32 -26.57,-0.39 -33.79,0 -33.94,-1.74 -0.13,-1.49 5.09,-2.28 24.18,-5.75 11.45,-2.08 22.41,-4.09 22.77,-5.73 0.13,-0.58 1.68,-3 -34.4,-4.52 h -1.07 l 0.71,-0.79 c 4.43,-4.9 6.83,-8.89 7.54,-12.58 -0.23,-4.25 -2.68,-8.28 -7.49,-12.3 l -0.94,-0.79 1.23,-0.09 c 5.33,-0.41 12.67,-1.08 14.82,-2.24 l 0.15,-0.09 c 0.75,-0.85 3.1,-5.26 1.74,-13.8 l -0.18,-1.15 0.95,0.66 a 45.47,45.47 0 0 0 11.64,6 c 3.85,-1.79 7.13,-5 10,-9.84 l 0.91,-1.51 v 1.76 c 0.16,10.62 2.53,16.32 7.47,17.92 l 0.43,0.14 -0.09,0.43 a 15.32,15.32 0 0 0 0,4.58 84.34,84.34 0 0 0 18,13.59 l 1.11,0.61 -1.23,0.31 c -2.14,0.55 -3.12,1.66 -4.48,3.18 -0.3,0.34 -0.62,0.7 -1,1.07 l -0.36,0.38 -0.36,-0.38 c -2.46,-2.58 -7.83,-2 -13.51,-1.42 -5.68,0.58 -12.15,1.28 -17.13,-1 l -3.79,-4.95 c 4.73,2.18 16,4.19 21.6,3.61 5.6,-0.58 10.26,0.2 13.17,2.72 l 0.6,-0.67 a 10.22,10.22 0 0 1 3.87,-3.12 c -5.85,-3.33 -11.69,-5.22 -17.36,-10.73 l -0.12,-2.71 v -0.18 c -0.22,-1.89 -0.42,-2.19 -0.24,-3.41 -4.86,-1.82 -7.57,-6.28 -7.95,-16.06 -2.84,4.31 -5.63,5 -9.35,6.69 l -0.17,0.07 h -0.18 c -3.45,-1.07 -6.25,-1.26 -10.3,-3.93 1.17,9.06 -2.61,11.66 -3.27,12.13 l -0.25,0.18 h -0.11 c -1.84,0.87 -4.4,2.1 -12.06,2.71 4.4,3.94 5,7.51 5.18,11.74 v 0.11 c -0.69,3.68 -0.62,6.77 -4.75,11.48 38.76,1.62 36.53,5 36.59,6.18 0.07,1.84 -6.59,2.47 -28.22,6.85 -9.47,1.92 -14.31,2.86 -14.31,4.35 0,1.49 10.54,1 23.9,1.16 29.32,0.3 38.65,0.12 38.88,2.17 0.23,2.05 -6.75,2.93 -29.32,6.68 -12.39,2.07 -26,4.26 -25.94,6.05 0.09,1.63 12.12,2 23.45,2.43 19.84,0.7 27.93,1.19 28.13,3.26 0.2,2.07 -5.06,2.95 -15.12,4.67 -9,1.52 -18.6,3.28 -18.56,6.25 0,1.75 6.36,2.26 12,2.63"
     transform="translate(-250.23765,-62.45)"
     id="path832"
     style="fill:#000000" />
</svg>
