<?xml version="1.0" encoding="UTF-8"?>
<svg width="79.482" height="153.59" data-name="Layer 1" version="1.1" viewBox="0 0 79.482 153.59" xmlns="http://www.w3.org/2000/svg">
 <defs>
  <style>.cls-1,.cls-4{fill:none;stroke:#de5f5f;}.cls-1,.cls-6{stroke-miterlimit:10;}.cls-1{stroke-width:3px;}.cls-2,.cls-6{fill:#de5f5f;}.cls-3{opacity:0.75;}.cls-4{stroke-linecap:round;stroke-linejoin:round;stroke-width:2px;}.cls-5{fill:#fff;}.cls-6{stroke:#df5f5f;}</style>
 </defs>
 <path class="cls-2" transform="translate(-250.24 -62.45)" d="m309.12 162.65-3.12 1.35s-4.7128-0.47395-8.91-0.76c-9.35-0.63-15-1.18-15.06-3.67 0-3.55 9.11-5.39 22-7.59 5.38-0.92 11.41-2.34 11.07-3.43-0.49-1.55-12.82-2.12-23.94-2.51-19.7-0.7-28.36-1.22-28.58-3.33s7.55-3.23 31-7.13c12.09-2 19.59-2.59 19.65-4.55 0.05-1.67-13.75-2.09-29.05-2.32-26.57-0.39-33.79 0-33.94-1.74-0.13-1.49 5.09-2.28 24.18-5.75 11.45-2.08 22.41-4.09 22.77-5.73 0.13-0.58 1.68-3-34.4-4.52 0 0 2.6964-1.5162 3.38-1.67 38.76 1.62 36.53 5 36.59 6.18 0.07 1.84-6.59 2.47-28.22 6.85-9.47 1.92-14.31 2.86-14.31 4.35s10.54 1 23.9 1.16c29.32 0.3 38.65 0.12 38.88 2.17s-6.75 2.93-29.32 6.68c-12.39 2.07-26 4.26-25.94 6.05 0.09 1.63 12.12 2 23.45 2.43 19.84 0.7 27.93 1.19 28.13 3.26s-5.06 2.95-15.12 4.67c-9 1.52-18.6 3.28-18.56 6.25 0 1.75 6.36 2.26 12 2.63"/>
</svg>
